<?xml version="1.0" encoding="utf-8"?>
<!-- Generator: Adobe Illustrator 27.0.0, SVG Export Plug-In . SVG Version: 6.00 Build 0)  -->
<svg version="1.1" id="Layer_1" xmlns="http://www.w3.org/2000/svg" xmlns:xlink="http://www.w3.org/1999/xlink" x="0px" y="0px"
	 viewBox="0 0 792 432" style="enable-background:new 0 0 792 432;" xml:space="preserve">
<g>
	<g>
		<path d="M93.7,49.73c15.57,36.47,47.62,60.78,93.32,75.02c-1.79,15.58-8.97,25.05-17.59,32.9c13.59-6.72,24.85-17.3,29.78-38.29
			c-16.23-5.12-30.16-10.34-41.13-15.67c66.6-20.15,129.05,18.72,137.14,81.33c-59.14-26.95-131.04-24.68-194.29,10.07
			c-0.26-21.8,5.24-40.07,15.46-55.45c12,13.6,26.29,19,41.84,19.85l0.54-0.9C113.56,136.42,83.67,96.74,93.7,49.73z"/>
		<path d="M83.78,100.47c4.15,4.36,8.41,8.21,12.87,11.06c3.09,6.71,8.1,14.07,13.93,21.7c-2.57,3.1-4.84,7.63-7.02,12.66
			C91.02,133.98,83.54,119.32,83.78,100.47z"/>
		<path d="M50,243.74c58.88-58.85,152.48-87.08,232.04-54.88l18.39,44.25l-20.3,0.85c-4.57-0.22-5.11,2.7-2.77,7.87l-27.23,14.25
			l29.99-5.11c4.58,9.27,11.71,31.21,18.72,52.54l-29.57,23.4l-5.74-4.04l-12.13-26.8l0.21,17.02
			c-25.38-18.43-52.1-35.33-77.65-49.08l10.43-43.88l-37.01,41.06c32.77,15.06,64.12,33.65,94.24,55.31l-0.21,53.35
			c-36.72-51.08-84.47-87.48-142.53-110.14c6.67-9.3,17.15-21.26,28.72-33.97c-14.81,11.15-28.52,21.73-38.5,30.35
			C76.3,251.36,63.27,247.24,50,243.74z M238.58,228.97l-3.71,21.25l25.27-27.17h20.45l-5.51-16.24l-47.22-25.57L207.7,202
			L238.58,228.97z"/>
	</g>
	<g>
		<path d="M353.5,320.19h22.77c8.02,0,13.66,5.13,13.66,12.36c0,5.28-2.6,8.31-7.08,10.91c5.71,2.89,9.03,7.37,9.03,12.79
			c0,7.95-6.14,13.59-14.74,13.59H353.5V320.19z M374.82,341.22c5.49,0,9.4-3.32,9.4-7.95c0-4.63-3.9-7.95-9.4-7.95h-15.68v15.9
			H374.82z M375.69,364.71c6.14,0,10.48-3.83,10.48-9.18c0-5.35-4.34-9.18-10.48-9.18h-16.55v18.36H375.69z"/>
		<path d="M428.22,347.07v22.77h-5.42v-5.85c-2.67,4.41-8.24,6.72-13.15,6.72c-7.88,0-13.66-4.55-13.66-11.92
			c0-7.44,6.65-12.43,14.67-12.43c4.05,0,8.31,0.87,12.14,2.1v-1.37c0-5.06-2.02-10.84-10.12-10.84c-3.76,0-7.52,1.66-10.91,3.4
			l-2.17-4.41c5.35-2.67,9.83-3.61,13.44-3.61C423.24,331.61,428.22,338.04,428.22,347.07z M422.8,358.13v-5.71
			c-3.4-0.94-7.23-1.52-11.27-1.52c-5.56,0-10.26,3.18-10.26,7.66c0,4.63,4.05,7.37,9.32,7.37
			C415.5,365.94,421.36,363.41,422.8,358.13z"/>
		<path d="M456.05,331.61v4.84c-8.46,0-14.45,5.2-14.45,12.5v20.89h-5.42v-37.36h5.42v7.3
			C443.83,334.79,449.18,331.61,456.05,331.61z"/>
		<path d="M496.66,351.12c0,11.49-7.37,19.59-17.2,19.59c-6,0-10.77-2.96-13.59-7.88v7.01h-5.42v-50.52h5.42v20.16
			c2.82-4.91,7.59-7.88,13.59-7.88C489.29,331.61,496.66,339.7,496.66,351.12z M490.95,351.12c0-8.6-5.2-14.67-12.5-14.67
			c-7.37,0-12.57,6.07-12.57,14.67c0,8.6,5.2,14.74,12.57,14.74C485.75,365.86,490.95,359.72,490.95,351.12z"/>
		<path d="M531.06,361.38l3.32,3.54c-3.25,3.54-9.83,5.78-15.03,5.78c-9.97,0-18.93-8.17-18.93-19.66
			c0-11.13,8.38-19.44,18.43-19.44c11.27,0,17.71,8.53,17.71,21.61h-30.57c0.79,7.3,5.93,12.65,13.3,12.65
			C523.68,365.86,528.74,363.91,531.06,361.38z M506.05,348.37h25.15c-0.72-6.72-4.7-11.92-12.14-11.92
			C512.41,336.45,507.06,341.15,506.05,348.37z"/>
		<path d="M562.2,331.61v4.84c-8.46,0-14.45,5.2-14.45,12.5v20.89h-5.42v-37.36h5.42v7.3C549.99,334.79,555.33,331.61,562.2,331.61z
			"/>
		<path d="M581.28,362.76l3.54-4.41c4.19,4.19,9.32,7.15,16.26,7.15c7.66,0,11.56-4.19,11.56-8.67c0-5.28-4.7-7.37-13.37-9.4
			c-9.97-2.31-16.26-5.42-16.26-14.02c0-7.95,7.08-14.16,16.62-14.16c7.37,0,12.86,2.89,17.42,7.08l-3.47,4.41
			c-4.12-3.97-9.03-6.36-14.24-6.36c-6.14,0-10.62,4.05-10.62,8.6c0,5.13,4.91,6.94,13.37,8.96c9.47,2.24,16.26,5.64,16.26,14.38
			c0,7.88-5.93,14.31-17.49,14.31C592.69,370.63,586.26,367.67,581.28,362.76z"/>
		<path d="M655.93,346.06v23.78h-5.42v-23.05c0-6.07-3.83-10.33-9.32-10.33c-6.29,0-11.56,4.41-11.56,9.61v23.78h-5.42v-50.52h5.42
			v19.15c2.17-3.97,7.01-6.87,12.29-6.87C650.15,331.61,655.93,337.61,655.93,346.06z"/>
		<path d="M661.27,351.12c0-10.62,8.89-19.51,19.37-19.51c10.48,0,19.3,8.89,19.3,19.51c0,10.62-8.82,19.59-19.3,19.59
			C670.16,370.71,661.27,361.74,661.27,351.12z M694.23,351.12c0-7.95-6.22-14.67-13.59-14.67c-7.44,0-13.66,6.72-13.66,14.67
			c0,8.02,6.22,14.74,13.66,14.74C688.01,365.86,694.23,359.14,694.23,351.12z"/>
		<path d="M742,351.12c0,11.49-7.37,19.59-17.2,19.59c-6,0-10.77-2.96-13.59-7.88v19.44h-5.42v-49.79h5.42v7.01
			c2.82-4.91,7.59-7.88,13.59-7.88C734.63,331.61,742,339.7,742,351.12z M736.29,351.12c0-8.6-5.2-14.67-12.5-14.67
			c-7.37,0-12.58,6.07-12.58,14.67c0,8.6,5.2,14.74,12.58,14.74C731.08,365.86,736.29,359.72,736.29,351.12z"/>
	</g>
	<g>
		<g>
			<path d="M386.87,288.04V201.8l-26.77-26.77v113.01h-17.84v-148.7h8.92l53.53,53.53v95.17H386.87z"/>
		</g>
		<g>
			<path d="M449.21,288.04l-37.17-74.35l37.17-74.35h8.92l37.17,74.35l-37.17,74.35H449.21z M473,213.69l-19.33-38.66l-19.33,38.66
				l19.33,38.66L473,213.69z"/>
			<path d="M502.74,288.04v-148.7h8.92l55.02,55.02l-34.2,34.2l32.71,32.71v17.84h-8.92l-35.69-35.69v44.61H502.74z M539.92,194.36
				l-19.33-19.33v38.66L539.92,194.36z"/>
		</g>
		<rect x="651.65" y="139.34" width="17.84" height="148.7"/>
		<polygon points="737.83,148.27 728.91,148.27 681.9,195.5 681.9,232.18 728.91,279.12 737.83,279.12 737.83,261.28 699.75,223.36 
			699.75,204.17 737.83,166.11 		"/>
		<path d="M574.11,139.34h8.92l56.2,56.16v36.86l-56.2,55.68h-8.92V139.34z M621.4,223.36v-18.83l-29.44-29.5v77.32L621.4,223.36z"
			/>
	</g>
</g>
</svg>
