<?xml version="1.0" encoding="UTF-8" standalone="no"?>
<!-- Generated by SVGMaker - https://svgmaker.io -->
<!-- Created: 2026-07-05T00:25:11.691Z -->
<svg xmlns="http://www.w3.org/2000/svg" xmlns:xlink="http://www.w3.org/1999/xlink" version="1.1" width="1054" height="781" viewBox="225.8571 167.3571 602.2857 446.2857" xml:space="preserve">
<desc>Created with Fabric.js 7.2.0</desc>
<defs>
</defs>
<rect x="0" y="0" width="100%" height="100%" fill="transparent"></rect>
<g transform="matrix(1 0 0 1 50 50)">
<rect style="stroke: none; stroke-width: 1; stroke-dasharray: none; stroke-linecap: butt; stroke-dashoffset: 0; stroke-linejoin: miter; stroke-miterlimit: 4; fill: rgb(255,255,255); fill-opacity: 0; fill-rule: nonzero; opacity: 1;" x="-50" y="-50" rx="0" ry="0" width="100" height="100"></rect>
</g>
<g transform="matrix(1 0 0 1 324.4891 296.91)" id="Layer_1">
<path style="stroke: none; stroke-width: 1; stroke-dasharray: none; stroke-linecap: butt; stroke-dashoffset: 0; stroke-linejoin: miter; stroke-miterlimit: 4; fill: rgb(255,255,255); fill-rule: nonzero; opacity: 1;" transform=" translate(-193.4891, -122.41)" d="M 93.7 49.73 C 109.27 86.2 141.32 110.51 187.02 124.75 C 185.23 140.33 178.05 149.8 169.43 157.65 C 183.02 150.93 194.28 140.35 199.21 119.36 C 182.98 114.24 169.05 109.02 158.08 103.69 C 224.68 83.54 287.13 122.41 295.22 185.02 C 236.08 158.07 164.18 160.34 100.93 195.09 C 100.67 173.29 106.17 155.02 116.39 139.64 C 128.39 153.24 142.68 158.64 158.23 159.49 L 158.77 158.59 C 113.56 136.42 83.67 96.74 93.7 49.73 Z" stroke-linecap="round"></path>
</g>
<g transform="matrix(1 0 0 1 228.1772 297.68)" id="Layer_1">
<path style="stroke: none; stroke-width: 1; stroke-dasharray: none; stroke-linecap: butt; stroke-dashoffset: 0; stroke-linejoin: miter; stroke-miterlimit: 4; fill: rgb(255,255,255); fill-rule: nonzero; opacity: 1;" transform=" translate(-97.1772, -123.18)" d="M 83.78 100.47 C 87.93 104.83 92.19 108.68 96.65 111.53 C 99.74 118.24 104.75 125.6 110.58 133.23 C 108.01 136.33 105.74 140.86 103.56 145.89 C 91.02 133.98 83.54 119.32 83.78 100.47 Z" stroke-linecap="round"></path>
</g>
<g transform="matrix(1 0 0 1 306.215 447.1069)" id="Layer_1">
<path style="stroke: none; stroke-width: 1; stroke-dasharray: none; stroke-linecap: butt; stroke-dashoffset: 0; stroke-linejoin: miter; stroke-miterlimit: 4; fill: rgb(255,255,255); fill-rule: nonzero; opacity: 1;" transform=" translate(-175.215, -272.6069)" d="M 50 243.74 C 108.88 184.89 202.48 156.66 282.04 188.86 L 300.43 233.11 L 280.13 233.96 C 275.56 233.74 275.02 236.66 277.36 241.83 L 250.13 256.08 L 280.12 250.97 C 284.7 260.24 291.83 282.18 298.84 303.51 L 269.27 326.91 L 263.53 322.87 L 251.4 296.07 L 251.61 313.09 C 226.23 294.66 199.51 277.76 173.96 264.01 L 184.39 220.13 L 147.38 261.19 C 180.15 276.25 211.5 294.84 241.62 316.5 L 241.41 369.85 C 204.69 318.77 156.94 282.37 98.88 259.71 C 105.55 250.41 116.03 238.45 127.6 225.74 C 112.79 236.89 99.08 247.47 89.1 256.09 C 76.3 251.36 63.27 247.24 50 243.74 Z M 238.58 228.97 L 234.87 250.22 L 260.14 223.05 L 280.59 223.05 L 275.08 206.81 L 227.86 181.24 L 207.7 202 L 238.58 228.97 Z" stroke-linecap="round"></path>
</g>
<g transform="matrix(1 0 0 1 503.69 519.515)" id="Layer_1">
<path style="stroke: none; stroke-width: 1; stroke-dasharray: none; stroke-linecap: butt; stroke-dashoffset: 0; stroke-linejoin: miter; stroke-miterlimit: 4; fill: rgb(255,255,255); fill-rule: nonzero; opacity: 1;" transform=" translate(-372.69, -345.015)" d="M 353.5 320.19 L 376.27 320.19 C 384.29 320.19 389.93 325.32 389.93 332.55 C 389.93 337.83 387.33 340.86 382.85 343.46 C 388.56 346.35 391.88 350.83 391.88 356.25 C 391.88 364.2 385.74 369.84 377.14 369.84 L 353.5 369.84 L 353.5 320.19 Z M 374.82 341.22 C 380.31 341.22 384.22 337.9 384.22 333.27 C 384.22 328.64 380.32 325.32 374.82 325.32 L 359.14 325.32 L 359.14 341.22 L 374.82 341.22 Z M 375.69 364.71 C 381.83 364.71 386.17 360.88 386.17 355.53 C 386.17 350.18 381.83 346.35 375.69 346.35 L 359.14 346.35 L 359.14 364.71 L 375.69 364.71 Z" stroke-linecap="round"></path>
</g>
<g transform="matrix(1 0 0 1 543.105 525.67)" id="Layer_1">
<path style="stroke: none; stroke-width: 1; stroke-dasharray: none; stroke-linecap: butt; stroke-dashoffset: 0; stroke-linejoin: miter; stroke-miterlimit: 4; fill: rgb(255,255,255); fill-rule: nonzero; opacity: 1;" transform=" translate(-412.105, -351.17)" d="M 428.22 347.07 L 428.22 369.84 L 422.8 369.84 L 422.8 363.99 C 420.13 368.4 414.56 370.71 409.65 370.71 C 401.77 370.71 395.99 366.16 395.99 358.79 C 395.99 351.35 402.64 346.36 410.66 346.36 C 414.71 346.36 418.97 347.23 422.8 348.46 L 422.8 347.09 C 422.8 342.03 420.78 336.25 412.68 336.25 C 408.92 336.25 405.16 337.91 401.77 339.65 L 399.6 335.24 C 404.95 332.57 409.43 331.63 413.04 331.63 C 423.24 331.61 428.22 338.04 428.22 347.07 Z M 422.8 358.13 L 422.8 352.42 C 419.4 351.48 415.57 350.9 411.53 350.9 C 405.97 350.9 401.27 354.08 401.27 358.56 C 401.27 363.19 405.32 365.93 410.59 365.93 C 415.5 365.94 421.36 363.41 422.8 358.13 Z" stroke-linecap="round"></path>
</g>
<g transform="matrix(1 0 0 1 577.115 525.225)" id="Layer_1">
<path style="stroke: none; stroke-width: 1; stroke-dasharray: none; stroke-linecap: butt; stroke-dashoffset: 0; stroke-linejoin: miter; stroke-miterlimit: 4; fill: rgb(255,255,255); fill-rule: nonzero; opacity: 1;" transform=" translate(-446.115, -350.725)" d="M 456.05 331.61 L 456.05 336.45 C 447.59 336.45 441.6 341.65 441.6 348.95 L 441.6 369.84 L 436.18 369.84 L 436.18 332.48 L 441.6 332.48 L 441.6 339.78 C 443.83 334.79 449.18 331.61 456.05 331.61 Z" stroke-linecap="round"></path>
</g>
<g transform="matrix(1 0 0 1 609.555 519.515)" id="Layer_1">
<path style="stroke: none; stroke-width: 1; stroke-dasharray: none; stroke-linecap: butt; stroke-dashoffset: 0; stroke-linejoin: miter; stroke-miterlimit: 4; fill: rgb(255,255,255); fill-rule: nonzero; opacity: 1;" transform=" translate(-478.555, -345.015)" d="M 496.66 351.12 C 496.66 362.61 489.29 370.71 479.46 370.71 C 473.46 370.71 468.69 367.75 465.87 362.83 L 465.87 369.84 L 460.45 369.84 L 460.45 319.32 L 465.87 319.32 L 465.87 339.48 C 468.69 334.57 473.46 331.6 479.46 331.6 C 489.29 331.61 496.66 339.7 496.66 351.12 Z M 490.95 351.12 C 490.95 342.52 485.75 336.45 478.45 336.45 C 471.08 336.45 465.88 342.52 465.88 351.12 C 465.88 359.72 471.08 365.86 478.45 365.86 C 485.75 365.86 490.95 359.72 490.95 351.12 Z" stroke-linecap="round"></path>
</g>
<g transform="matrix(1 0 0 1 649.49 525.65)" id="Layer_1">
<path style="stroke: none; stroke-width: 1; stroke-dasharray: none; stroke-linecap: butt; stroke-dashoffset: 0; stroke-linejoin: miter; stroke-miterlimit: 4; fill: rgb(255,255,255); fill-rule: nonzero; opacity: 1;" transform=" translate(-518.49, -351.15)" d="M 531.06 361.38 L 534.38 364.92 C 531.13 368.46 524.55 370.7 519.35 370.7 C 509.38 370.7 500.42 362.53 500.42 351.04 C 500.42 339.91 508.8 331.6 518.85 331.6 C 530.12 331.6 536.56 340.13 536.56 353.21 L 505.99 353.21 C 506.78 360.51 511.92 365.86 519.29 365.86 C 523.68 365.86 528.74 363.91 531.06 361.38 Z M 506.05 348.37 L 531.2 348.37 C 530.48 341.65 526.5 336.45 519.06 336.45 C 512.41 336.45 507.06 341.15 506.05 348.37 Z" stroke-linecap="round"></path>
</g>
<g transform="matrix(1 0 0 1 683.265 525.225)" id="Layer_1">
<path style="stroke: none; stroke-width: 1; stroke-dasharray: none; stroke-linecap: butt; stroke-dashoffset: 0; stroke-linejoin: miter; stroke-miterlimit: 4; fill: rgb(255,255,255); fill-rule: nonzero; opacity: 1;" transform=" translate(-552.265, -350.725)" d="M 562.2 331.61 L 562.2 336.45 C 553.74 336.45 547.75 341.65 547.75 348.95 L 547.75 369.84 L 542.33 369.84 L 542.33 332.48 L 547.75 332.48 L 547.75 339.78 C 549.99 334.79 555.33 331.61 562.2 331.61 Z" stroke-linecap="round"></path>
</g>
<g transform="matrix(1 0 0 1 730.815 519.44)" id="Layer_1">
<path style="stroke: none; stroke-width: 1; stroke-dasharray: none; stroke-linecap: butt; stroke-dashoffset: 0; stroke-linejoin: miter; stroke-miterlimit: 4; fill: rgb(255,255,255); fill-rule: nonzero; opacity: 1;" transform=" translate(-599.815, -344.94)" d="M 581.28 362.76 L 584.82 358.35 C 589.01 362.54 594.14 365.5 601.08 365.5 C 608.74 365.5 612.64 361.31 612.64 356.83 C 612.64 351.55 607.94 349.46 599.27 347.43 C 589.3 345.12 583.01 342.01 583.01 333.41 C 583.01 325.46 590.09 319.25 599.63 319.25 C 607 319.25 612.49 322.14 617.05 326.33 L 613.58 330.74 C 609.46 326.77 604.55 324.38 599.34 324.38 C 593.2 324.38 588.72 328.43 588.72 332.98 C 588.72 338.11 593.63 339.92 602.09 341.94 C 611.56 344.18 618.35 347.58 618.35 356.32 C 618.35 364.2 612.42 370.63 600.86 370.63 C 592.69 370.63 586.26 367.67 581.28 362.76 Z" stroke-linecap="round"></path>
</g>
<g transform="matrix(1 0 0 1 771.07 519.09)" id="Layer_1">
<path style="stroke: none; stroke-width: 1; stroke-dasharray: none; stroke-linecap: butt; stroke-dashoffset: 0; stroke-linejoin: miter; stroke-miterlimit: 4; fill: rgb(255,255,255); fill-rule: nonzero; opacity: 1;" transform=" translate(-640.07, -344.59)" d="M 655.93 346.06 L 655.93 369.84 L 650.51 369.84 L 650.51 346.79 C 650.51 340.72 646.68 336.46 641.19 336.46 C 634.9 336.46 629.63 340.87 629.63 346.07 L 629.63 369.85 L 624.21 369.85 L 624.21 319.33 L 629.63 319.33 L 629.63 338.48 C 631.8 334.51 636.64 331.61 641.92 331.61 C 650.15 331.61 655.93 337.61 655.93 346.06 Z" stroke-linecap="round"></path>
</g>
<g transform="matrix(1 0 0 1 811.605 525.66)" id="Layer_1">
<path style="stroke: none; stroke-width: 1; stroke-dasharray: none; stroke-linecap: butt; stroke-dashoffset: 0; stroke-linejoin: miter; stroke-miterlimit: 4; fill: rgb(255,255,255); fill-rule: nonzero; opacity: 1;" transform=" translate(-680.605, -351.16)" d="M 661.27 351.12 C 661.27 340.5 670.16 331.61 680.64 331.61 C 691.12 331.61 699.94 340.5 699.94 351.12 C 699.94 361.74 691.12 370.71 680.64 370.71 C 670.16 370.71 661.27 361.74 661.27 351.12 Z M 694.23 351.12 C 694.23 343.17 688.01 336.45 680.64 336.45 C 673.2 336.45 666.98 343.17 666.98 351.12 C 666.98 359.14 673.2 365.86 680.64 365.86 C 688.01 365.86 694.23 359.14 694.23 351.12 Z" stroke-linecap="round"></path>
</g>
<g transform="matrix(1 0 0 1 854.895 531.44)" id="Layer_1">
<path style="stroke: none; stroke-width: 1; stroke-dasharray: none; stroke-linecap: butt; stroke-dashoffset: 0; stroke-linejoin: miter; stroke-miterlimit: 4; fill: rgb(255,255,255); fill-rule: nonzero; opacity: 1;" transform=" translate(-723.895, -356.94)" d="M 742 351.12 C 742 362.61 734.63 370.71 724.8 370.71 C 718.8 370.71 714.03 367.75 711.21 362.83 L 711.21 382.27 L 705.79 382.27 L 705.79 332.48 L 711.21 332.48 L 711.21 339.49 C 714.03 334.58 718.8 331.61 724.8 331.61 C 734.63 331.61 742 339.7 742 351.12 Z M 736.29 351.12 C 736.29 342.52 731.09 336.45 723.79 336.45 C 716.42 336.45 711.21 342.52 711.21 351.12 C 711.21 359.72 716.41 365.86 723.79 365.86 C 731.08 365.86 736.29 359.72 736.29 351.12 Z" stroke-linecap="round"></path>
</g>
<g transform="matrix(1 0 0 1 504.485 388.19)" id="Layer_1">
<path style="stroke: none; stroke-width: 1; stroke-dasharray: none; stroke-linecap: butt; stroke-dashoffset: 0; stroke-linejoin: miter; stroke-miterlimit: 4; fill: rgb(255,255,255); fill-rule: nonzero; opacity: 1;" transform=" translate(-373.485, -213.69)" d="M 386.87 288.04 L 386.87 201.8 L 360.1 175.03 L 360.1 288.04 L 342.26 288.04 L 342.26 139.34 L 351.18 139.34 L 404.71 192.87 L 404.71 288.04 L 386.87 288.04 Z" stroke-linecap="round"></path>
</g>
<g transform="matrix(1 0 0 1 584.67 388.19)" id="Layer_1">
<path style="stroke: none; stroke-width: 1; stroke-dasharray: none; stroke-linecap: butt; stroke-dashoffset: 0; stroke-linejoin: miter; stroke-miterlimit: 4; fill: rgb(255,255,255); fill-rule: nonzero; opacity: 1;" transform=" translate(-453.67, -213.69)" d="M 449.21 288.04 L 412.04 213.69 L 449.21 139.34 L 458.13 139.34 L 495.3 213.69 L 458.13 288.04 L 449.21 288.04 Z M 473 213.69 L 453.67 175.03 L 434.34 213.69 L 453.67 252.35 L 473 213.69 Z" stroke-linecap="round"></path>
</g>
<g transform="matrix(1 0 0 1 665.71 388.19)" id="Layer_1">
<path style="stroke: none; stroke-width: 1; stroke-dasharray: none; stroke-linecap: butt; stroke-dashoffset: 0; stroke-linejoin: miter; stroke-miterlimit: 4; fill: rgb(255,255,255); fill-rule: nonzero; opacity: 1;" transform=" translate(-534.71, -213.69)" d="M 502.74 288.04 L 502.74 139.34 L 511.66 139.34 L 566.68 194.36 L 532.48 228.56 L 565.19 261.27 L 565.19 279.11 L 556.27 279.11 L 520.58 243.42 L 520.58 288.03 L 502.74 288.03 Z M 539.92 194.36 L 520.59 175.03 L 520.59 213.69 L 539.92 194.36 Z" stroke-linecap="round"></path>
</g>
<g transform="matrix(1 0 0 1 791.57 388.19)" id="Layer_1">
<rect style="stroke: none; stroke-width: 1; stroke-dasharray: none; stroke-linecap: butt; stroke-dashoffset: 0; stroke-linejoin: miter; stroke-miterlimit: 4; fill: rgb(255,255,255); fill-rule: nonzero; opacity: 1;" x="-8.92" y="-74.35" rx="0" ry="0" width="17.84" height="148.7"></rect>
</g>
<g transform="matrix(1 0 0 1 840.865 388.195)" id="Layer_1">
<polygon style="stroke: none; stroke-width: 1; stroke-dasharray: none; stroke-linecap: butt; stroke-dashoffset: 0; stroke-linejoin: miter; stroke-miterlimit: 4; fill: rgb(255,255,255); fill-rule: nonzero; opacity: 1;" points="27.965,-65.425 19.045,-65.425 -27.965,-18.195 -27.965,18.485 19.045,65.425 27.965,65.425 27.965,47.585 -10.115,9.665 -10.115,-9.525 27.965,-47.585"></polygon>
</g>
<g transform="matrix(1 0 0 1 737.67 388.19)" id="Layer_1">
<path style="stroke: none; stroke-width: 1; stroke-dasharray: none; stroke-linecap: butt; stroke-dashoffset: 0; stroke-linejoin: miter; stroke-miterlimit: 4; fill: rgb(255,255,255); fill-rule: nonzero; opacity: 1;" transform=" translate(-606.67, -213.69)" d="M 574.11 139.34 L 583.03 139.34 L 639.23 195.5 L 639.23 232.36 L 583.03 288.04 L 574.11 288.04 L 574.11 139.34 Z M 621.4 223.36 L 621.4 204.53 L 591.96 175.03 L 591.96 252.35 L 621.4 223.36 Z" stroke-linecap="round"></path>
</g>
</svg>